# AST/ASF file generated using VICON BodyLanguage
# -----------------------------------------------
:version 1.10
:name VICON
:units
  mass 1.0
  length 0.45
  angle deg
:documentation
   .ast/.asf automatically generated from VICON data using
   VICON BodyBuilder and BodyLanguage model FoxedUp or BRILLIANT.MOD
:root
   order TX TY TZ RX RY RZ
   axis XYZ
   position 0 0 0  
   orientation 0 0 0 
:bonedata
  begin
     id 1 
     name lhipjoint
     direction 0.623529 -0.717805 0.309788 
     length 2.23224 
     axis 0 0 0  XYZ
  end
  begin
     id 2 
     name lfemur
     direction 0.34202 -0.939693 0  
     length 7.11402  
     axis 0 0 20  XYZ
    dof rx ry rz
    limits (-160.0 20.0)
           (-70.0 70.0)
           (-60.0 70.0)
  end
  begin
     id 3 
     name ltibia
     direction 0.34202 -0.939693 0   
     length 6.78496   
     axis 0 0 20   XYZ
    dof rx
    limits (-10.0 170.0)
  end
  begin
     id 4 
     name lfoot
     direction 0.125078 -0.343648 0.930732   
     length 1.84054   
     axis -90 7.62852e-016 20   XYZ
    dof rx rz
    limits (-45.0 90.0)
           (-70.0 20.0)
  end
  begin
     id 5 
     name ltoes
     direction 1.53565e-011 -4.21893e-011 1   
     length 0.916474   
     axis -90 7.62852e-016 20   XYZ
    dof rx
    limits (-90.0 20.0)
  end
  begin
     id 6 
     name rhipjoint
     direction -0.564688 -0.757748 0.327026   
     length 2.11457  
     axis 0 0 0  XYZ 
  end
  begin
     id 7 
     name rfemur
     direction -0.34202 -0.939693 0   
     length 7.14609   
     axis 0 0 -20   XYZ
    dof rx ry rz
    limits (-160.0 20.0)
           (-70.0 70.0)
           (-70.0 60.0)
  end
  begin
     id 8 
     name rtibia
     direction -0.34202 -0.939693 0   
     length 6.78101   
     axis 0 0 -20   XYZ
    dof rx
    limits (-10.0 170.0)
 end
 begin
     id 9 
     name rfoot
     direction -0.0992671 -0.272734 0.956955   
     length 1.96168  
     axis -90 -7.62852e-016 -20   XYZ
    dof rx rz
    limits (-45.0 90.0)
           (-20.0 70.0)
  end
  begin
     id 10 
     name rtoes
     direction -1.5356e-011 -4.21891e-011 1   
     length 0.982933   
     axis -90 -7.62852e-016 -20   XYZ
    dof rx
    limits (-90.0 20.0)
  end
  begin
     id 11 
     name lowerback
     direction -0.00596953 0.998668 0.0512524   
     length 1.87557   
     axis 0 0 0   XYZ
    dof rx ry rz
    limits (-20.0 45.0)
           (-30.0 30.0)
           (-30.0 30.0)
  end
  begin
     id 12 
     name upperback
     direction 0.00584879 0.999652 0.0257308   
     length 1.87883   
     axis 0 0 0   XYZ
    dof rx ry rz
    limits (-20.0 45.0)
           (-30.0 30.0)
           (-30.0 30.0)
  end
  begin
     id 13 
     name thorax
     direction 0.010104 0.999947 0.00178881   
     length 1.87779   
     axis 0 0 0   XYZ
    dof rx ry rz
    limits (-20.0 45.0)
           (-30.0 30.0)
           (-30.0 30.0)
  end
  begin
     id 14 
     name lowerneck
     direction 0.0120771 0.995934 -0.0892773   
     length 1.40897   
     axis 0 0 0   XYZ
    dof rx ry rz
    limits (-20.0 45.0)
           (-30.0 30.0)
           (-30.0 30.0)
  end
  begin
     id 15 
     name upperneck
     direction -0.030568 0.999465 -0.0116366   
     length 1.38661   
     axis 0 0 0   XYZ
    dof rx ry rz
    limits (-20.0 45.0)
           (-30.0 30.0)
           (-30.0 30.0)
  end
  begin
     id 16
     name head
     direction -0.0170715 0.999854 -0.00104426  
     length 1.47052  
     axis 0 0 0   XYZ
    dof rx ry rz
    limits (-20.0 45.0)
           (-30.0 30.0)
           (-30.0 30.0)
  end
  begin
     id 17 
     name lclavicle
     direction 0.977763 0.206143 0.038532  
     length 3.02424  
     axis 0 0 0   XYZ
    dof ry rz
    limits (-20.0 10.0)
           (0.0 20.0)
  end
  begin
     id 18 
     name lhumerus
     direction 1 -4.48965e-011 -2.62654e-027   
     length 4.68382   
     axis 180 -30 -90   XYZ
    dof rx ry rz
    limits (-60.0 90.0)
           (-90.0 90.0)
           (-90.0 90.0)
  end
  begin
     id 19
     name lradius
     direction 1 -4.48973e-011 -1.54954e-027   
     length 2.98124   
     axis 180 -30 -90   XYZ
    dof rx
    limits (-10.0 170.0)
  end
  begin
     id 20
     name lwrist
     direction 1 -4.48959e-011 7.20928e-028   
     length 1.49062   
     axis -5.52449e-016 90 90   XYZ
    dof ry
    limits (-180.0 0.0)
 end
  begin
     id 21 
     name lhand
     direction 1 -4.48971e-011 1.44186e-027   
     length 0.707595   
     axis -9.20027e-016 90 90   XYZ
    dof rx rz
    limits (-90.0 90.0)
           (-45.0 45.0)
  end
  begin
     id 22 
     name lfingers
     direction 1 -4.48985e-011 2.88371e-027   
     length 0.570481   
     axis -1.84005e-015 90 90   XYZ
    dof rx
    limits (0.0 90.0)
  end
  begin
     id 23
     name lthumb
     direction 0.707107 -6.34929e-011 0.707107   
     length 0.819101   
     axis -90 45 2.85299e-015   XYZ
    dof rx rz
    limits (-45.0 45.0)
           (-45.0 45.0)
  end
  begin
     id 24 
     name rclavicle
     direction -0.958661 0.284411 -0.00895327   
     length 3.11921  
     axis 0 0 0   XYZ 
    dof ry rz
    limits (-10.0 20.0)
           (-20.0 0.0)
  end
  begin
     id 25 
     name rhumerus
     direction -1 -4.48963e-011 -4.22193e-027  
     length 4.75876   
     axis 180 30 90   XYZ
    dof rx ry rz
    limits (-90.0 60.0)
           (-90.0 90.0)
           (-90.0 90.0)
  end
  begin
     id 26 
     name rradius
     direction -1 -4.48968e-011 -1.07616e-027   
     length 2.93293   
     axis 180 30 90   XYZ
    dof rx
    limits (-10.0 170.0)
  end
  begin
     id 27 
     name rwrist
     direction -1 -4.48965e-011 7.20928e-028   
     length 1.46647   
     axis -5.52449e-016 -90 -90   XYZ
    dof ry
    limits (-180.0 0.0)
  end
  begin
     id 28
     name rhand
     direction -1 -4.48971e-011 1.44186e-027   
     length 0.831748   
     axis -9.20027e-016 -90 -90   XYZ
    dof rx rz
    limits (-90.0 90.0)
           (-45.0 45.0)
  end
  begin
     id 29
     name rfingers
     direction -1 -4.48961e-011 2.88371e-027   
     length 0.670577   
     axis -1.84005e-015 -90 -90   XYZ
    dof rx
    limits (0.0 90.0)
  end
  begin
     id 30
     name rthumb
     direction -0.707107 -6.34929e-011 0.707107   
     length 0.962818   
     axis -90 -45 -2.85299e-015   XYZ
    dof rx rz
    limits (-45.0 45.0)
           (-45.0 45.0)
  end
:hierarchy
  begin
    root lhipjoint rhipjoint lowerback
    lhipjoint lfemur
    lfemur ltibia
    ltibia lfoot
    lfoot ltoes
    rhipjoint rfemur
    rfemur rtibia
    rtibia rfoot
    rfoot rtoes
    lowerback upperback
    upperback thorax
    thorax lowerneck lclavicle rclavicle
    lowerneck upperneck
    upperneck head
    lclavicle lhumerus
    lhumerus lradius
    lradius lwrist
    lwrist lhand lthumb
    lhand lfingers
    rclavicle rhumerus
    rhumerus rradius
    rradius rwrist
    rwrist rhand rthumb
    rhand rfingers
  end

#!OML:ASF E:\id_vita\Project 1\Capture day 1\Session 1\Female.ASF
:FULLY-SPECIFIED
:DEGREES
691
root -3.96777 14.6763 -1.22701 7.27338 -80.8935 40.3926
lowerback 13.5361 -4.58082 -2.34578
upperback 7.24719 -6.51049 5.55194
thorax 1.05852 -3.58252 7.96072
lowerneck -13.1832 4.55547 0.744128
upperneck -22.4164 4.12578 -5.19132
head -4.55851 1.56126 -1.7071
rclavicle -6.20208e-014 2.14687e-014
rhumerus 7.92677 45.2472 -83.8279
rradius 79.8451
rwrist -30.2356
rhand -32.5401 -0.999847
rfingers 7.12502
rthumb -5.77021 -30.9013
lclavicle -6.20208e-014 2.14687e-014
lhumerus 61.4818 -13.8905 86.8179
lradius 19.3659
lwrist 0.366471
lhand -0.185762 44.72
lfingers 7.12502
lthumb 25.4124 73.0462
rfemur -94.4473 -7.68241 36.5345
rtibia 20.8561
rfoot 27.3056 5.24254
rtoes -1.18975
lfemur -73.079 -11.7799 -33.9994
ltibia 61.2219
lfoot -26.2747 23.6957
ltoes 8.21829
692
root -3.9092 14.6723 -1.21821 6.38366 -80.7706 41.1524
lowerback 13.6908 -4.66344 -2.36129
upperback 7.13575 -6.60817 5.5238
thorax 0.870718 -3.62008 7.9722
lowerneck -13.211 4.51273 0.680742
upperneck -22.205 4.09974 -5.12512
head -4.49187 1.5556 -1.67256
rclavicle -2.82274e-014 6.03311e-014
rhumerus 7.66795 45.319 -84.0704
rradius 79.873
rwrist -30.1959
rhand -32.7162 -0.876969
rfingers 7.12502
rthumb -5.94024 -30.7737
lclavicle -2.82274e-014 6.03311e-014
lhumerus 61.3364 -13.7752 87.0604
lradius 19.2463
lwrist 0.0269422
lhand 0.179811 44.7205
lfingers 7.12502
lthumb 25.7626 72.9964
rfemur -94.2461 -7.88205 35.0348
rtibia 20.6322
rfoot 28.3137 4.63827
rtoes -1.28354
lfemur -73.1662 -12.0153 -34.118
ltibia 61.2941
lfoot -26.3123 23.6499
ltoes 8.25977
693
root -3.84759 14.6635 -1.20629 5.8678 -80.8579 41.4566
lowerback 13.8023 -4.62423 -2.4545
upperback 7.1232 -6.56899 5.57753
thorax 0.810672 -3.60467 8.09234
lowerneck -13.0538 4.4669 0.624948
upperneck -22.1334 4.03763 -5.24138
head -4.49192 1.54184 -1.70185
rclavicle 2.50469e-014 -8.27938e-014
rhumerus 7.63051 45.4104 -84.0124
rradius 79.7196
rwrist -30.2568
rhand -32.9606 -0.305003
rfingers 7.12502
rthumb -6.17613 -30.195
lclavicle 2.50469e-014 -8.27938e-014
lhumerus 61.2942 -13.6454 87.4831
lradius 19.0709
lwrist -0.381015
lhand 0.433558 44.7408
lfingers 7.12502
lthumb 26.0056 72.9812
rfemur -93.9557 -7.8591 33.5597
rtibia 20.4045
rfoot 29.4037 4.04426
rtoes -1.01091
lfemur -73.2753 -12.0526 -34.1986
ltibia 61.3936
lfoot -26.1209 23.559
ltoes 8.87371
694
root -3.78889 14.6576 -1.19137 5.48672 -80.9881 41.7195
lowerback 13.7274 -4.6373 -2.48044
upperback 7.1327 -6.59169 5.57509
thorax 0.8671 -3.61925 8.09793
lowerneck -13.0163 4.51975 0.649268
upperneck -22.0084 4.10288 -5.38228
head -4.45127 1.5841 -1.74886
rclavicle 9.42239e-014 1.1609e-013
rhumerus 7.56328 45.4318 -84.1377
rradius 79.6835
rwrist -30.2197
rhand -33.0958 0.438355
rfingers 7.12502
rthumb -6.30672 -29.4478
lclavicle 9.42239e-014 1.1609e-013
lhumerus 61.2214 -13.3352 87.8981
lradius 18.9084
lwrist -0.882454
lhand 0.446212 44.7354
lfingers 7.12502
lthumb 26.0177 72.974
rfemur -93.75 -7.76671 32.0972
rtibia 20.1815
rfoot 30.4701 3.72956
rtoes -1.3681
lfemur -73.4853 -12.1076 -34.2232
ltibia 61.4758
lfoot -25.8129 23.5051
ltoes 9.88832
695
root -3.73192 14.6501 -1.17835 5.53618 -81.0761 41.5847
lowerback 13.5873 -4.67027 -2.45956
upperback 7.14631 -6.63478 5.55962
thorax 0.958368 -3.6427 8.05736
lowerneck -12.8328 4.5755 0.729788
upperneck -22.103 4.15923 -5.47173
head -4.50154 1.61391 -1.79463
rclavicle 2.06736e-014 5.06901e-014
rhumerus 7.21025 45.1858 -84.6015
rradius 80.0739
rwrist -29.9757
rhand -33.2562 0.685744
rfingers 7.12502
rthumb -6.46158 -29.1957
lclavicle 2.06736e-014 5.06901e-014
lhumerus 61.1724 -13.1132 88.06
lradius 18.8061
lwrist -1.24111
lhand 0.369689 44.6654
lfingers 7.12502
lthumb 25.9444 72.9148
rfemur -93.5412 -7.68778 30.7121
rtibia 19.8826
rfoot 31.4202 3.67177
rtoes -1.74734
lfemur -73.7312 -12.2009 -34.1608
ltibia 61.5695
lfoot -25.5564 23.4269
ltoes 10.4575
696
root -3.67603 14.6515 -1.16471 5.47909 -81.1865 41.2365
lowerback 13.7733 -4.63757 -2.47219
upperback 7.24533 -6.60455 5.56417
thorax 0.962749 -3.63501 8.08104
lowerneck -12.573 4.605 0.898831
upperneck -22.2791 4.14738 -5.68324
head -4.58463 1.60808 -1.89638
rclavicle -1.19271e-014 5.96354e-016
rhumerus 6.69902 44.7433 -85.1328
rradius 80.7047
rwrist -29.6437
rhand -33.6848 0.903593
rfingers 7.12502
rthumb -6.87534 -28.9648
lclavicle -1.19271e-014 5.96354e-016
lhumerus 61.1155 -13.0072 88.2891
lradius 18.7307
lwrist -1.50451
lhand 0.58393 44.7109
lfingers 7.12502
lthumb 26.1496 72.9301
rfemur -92.9597 -7.64049 29.3262
rtibia 19.605
rfoot 32.2127 3.61682
rtoes -1.74353
lfemur -73.5843 -12.1478 -34.1773
ltibia 61.6437
lfoot -25.2138 23.3619
ltoes 11.1542
697
root -3.61768 14.6527 -1.14804 5.51977 -81.4399 40.9128
lowerback 13.7848 -4.57397 -2.49946
upperback 7.34485 -6.53775 5.59505
thorax 1.05996 -3.61324 8.11873
lowerneck -12.4104 4.67863 1.09123
upperneck -22.3584 4.18385 -6.00522
head -4.61709 1.62899 -2.03371
rclavicle -7.196e-014 -4.45278e-014
rhumerus 6.47913 44.509 -85.4327
rradius 80.7754
rwrist -29.5392
rhand -34.3316 2.76836
rfingers 7.12502
rthumb -7.49966 -27.0787
lclavicle -7.196e-014 -4.45278e-014
lhumerus 61.0524 -12.8332 88.5837
lradius 18.6387
lwrist -1.6266
lhand 0.75609 44.8593
lfingers 7.12502
lthumb 26.3144 73.054
rfemur -92.5735 -7.4354 27.9362
rtibia 19.4762
rfoot 32.899 3.59492
rtoes -2.57582
lfemur -73.6185 -11.9946 -34.1949
ltibia 61.7649
lfoot -24.8808 23.3913
ltoes 11.6998
698
root -3.56413 14.645 -1.13482 5.09361 -81.6482 41.2886
lowerback 13.5807 -4.54209 -2.50141
upperback 7.38913 -6.50264 5.5699
thorax 1.20675 -3.60126 8.06441
lowerneck -12.588 4.74817 1.25501
upperneck -22.2028 4.22937 -6.2862
head -4.52643 1.64838 -2.14344
rclavicle -3.73715e-014 3.00165e-014
rhumerus 6.83128 44.5762 -85.309
rradius 80.4144
rwrist -29.8674
rhand -34.6233 3.93507
rfingers 7.12502
rthumb -7.78116 -25.9018
lclavicle -3.73715e-014 3.00165e-014
lhumerus 61.1026 -12.6887 88.7827
lradius 18.4647
lwrist -1.84201
lhand 0.615798 44.8152
lfingers 7.12502
lthumb 26.1801 73.0299
rfemur -92.5367 -7.27536 26.4647
rtibia 19.5063
rfoot 33.557 2.95786
rtoes -2.45992
lfemur -73.9011 -11.8574 -34.3427
ltibia 61.9274
lfoot -24.8132 23.2873
ltoes 11.6462
699
root -3.51514 14.6218 -1.12298 4.56631 -81.8319 41.8266
lowerback 13.3704 -4.50894 -2.57654
upperback 7.38193 -6.46973 5.59035
thorax 1.31745 -3.5912 8.10399
lowerneck -12.7419 4.72894 1.1759
upperneck -22.039 4.20626 -6.34544
head -4.45316 1.64315 -2.14348
rclavicle -3.73715e-014 -4.35338e-014
rhumerus 7.45252 44.8286 -84.8095
rradius 80.0552
rwrist -30.0398
rhand -34.809 4.13074
rfingers 7.12502
rthumb -7.96038 -25.6994
lclavicle -3.73715e-014 -4.35338e-014
lhumerus 61.045 -12.4727 89.1931
lradius 18.378
lwrist -2.28109
lhand 0.733221 44.6896
lfingers 7.12502
lthumb 26.2925 72.8876
rfemur -92.6363 -7.14308 24.9798
rtibia 19.6285
rfoot 34.2205 2.30998
rtoes -2.30527
lfemur -74.2284 -11.6959 -34.5755
ltibia 62.1251
lfoot -24.6279 22.6789
ltoes 12.6959
700
root -3.4643 14.6031 -1.10792 3.64328 -82.0712 42.6649
lowerback 13.2516 -4.50432 -2.66649
upperback 7.4288 -6.47926 5.55354
thorax 1.43831 -3.60385 8.10076
lowerneck -13.0587 4.70764 1.01754
upperneck -21.8044 4.21339 -6.21708
head -4.34111 1.64583 -2.06731
rclavicle -1.90833e-014 -3.73715e-014
rhumerus 7.38633 44.8416 -85.03
rradius 80.3069
rwrist -30.0259
rhand -35.0444 4.72137
rfingers 7.12502
rthumb -8.18764 -25.1
lclavicle -1.90833e-014 -3.73715e-014
lhumerus 60.9585 -12.2828 89.1797
lradius 18.5209
lwrist -2.29031
lhand 1.36595 45.014
lfingers 7.12502
lthumb 26.8981 73.1202
rfemur -92.6825 -6.99207 23.4401
rtibia 19.8441
rfoot 34.7601 2.31198
rtoes -3.55673
lfemur -74.4481 -11.5358 -34.8082
ltibia 62.2993
lfoot -24.3169 22.2119
ltoes 13.8483
701
root -3.41285 14.6023 -1.09222 1.43102 -82.3747 44.6471
lowerback 13.2269 -4.48802 -3.00296
upperback 7.53008 -6.5045 5.46765
thorax 1.59361 -3.63608 8.19297
lowerneck -13.3523 4.79418 1.09627
upperneck -21.5135 4.32867 -6.29
head -4.19819 1.69554 -2.09246
rclavicle -3.69739e-014 -8.48811e-014
rhumerus 6.52179 44.3837 -86.0048
rradius 81.1105
rwrist -29.3582
rhand -34.4716 4.34848
rfingers 7.12502
rthumb -7.63481 -25.4937
lclavicle -3.69739e-014 -8.48811e-014
lhumerus 61.0231 -12.0515 88.9243
lradius 18.4589
lwrist -2.16424
lhand 2.14152 45.2836
lfingers 7.12502
lthumb 27.6399 73.2732
rfemur -92.5368 -6.82731 21.7291
rtibia 20.1114
rfoot 35.0404 2.32153
rtoes -4.9602
lfemur -74.5165 -11.3495 -35.1345
ltibia 62.4358
lfoot -24.3281 22.7255
ltoes 12.2167
702
root -3.3665 14.6041 -1.07467 -0.0566808 -82.7576 45.8778
lowerback 13.2173 -4.43751 -3.20092
upperback 7.616 -6.46933 5.39401
thorax 1.69903 -3.63198 8.21683
lowerneck -13.2705 4.85526 1.19372
upperneck -21.5039 4.39879 -6.35145
head -4.19979 1.72825 -2.12848
rclavicle 4.65156e-014 -1.27222e-013
rhumerus 6.3164 44.2344 -86.4398
rradius 81.2925
rwrist -29.0282
rhand -33.6817 2.49447
rfingers 7.12502
rthumb -6.87227 -27.374
lclavicle 4.65156e-014 -1.27222e-013
lhumerus 61.1389 -11.7635 88.9043
lradius 18.0928
lwrist -2.40883
lhand 2.78011 45.0029
lfingers 7.12502
lthumb 28.2504 72.8931
rfemur -92.3061 -6.56862 20.13
rtibia 20.3744
rfoot 35.1486 2.1336
rtoes -5.41373
lfemur -74.5631 -11.0224 -35.3809
ltibia 62.558
lfoot -24.3261 23.2624
ltoes 10.3157
703
root -3.32278 14.5909 -1.0582 0.104111 -83.1376 45.6149
lowerback 13.1951 -4.35302 -3.10993
upperback 7.58233 -6.34799 5.36127
thorax 1.63824 -3.56385 8.11835
lowerneck -13.0075 4.88562 1.47712
upperneck -21.6268 4.37622 -6.60772
head -4.2608 1.71188 -2.26271
rclavicle -9.18385e-014 -4.77083e-014
rhumerus 6.62433 44.2112 -86.5177
rradius 80.666
rwrist -29.1351
rhand -32.8197 0.335365
rfingers 7.12502
rthumb -6.04012 -29.5585
lclavicle -9.18385e-014 -4.77083e-014
lhumerus 61.1264 -11.6282 89.0994
lradius 17.7683
lwrist -2.75996
lhand 3.48781 44.8935
lfingers 7.12502
lthumb 28.9266 72.6698
rfemur -92.2509 -6.27552 18.7612
rtibia 20.5877
rfoot 35.1899 2.48002
rtoes -6.83788
lfemur -74.7906 -10.5746 -35.5477
ltibia 62.7385
lfoot -24.0285 22.7858
ltoes 11.1977
